<svg xmlns="http://www.w3.org/2000/svg" viewBox="0 0 900 600"><path d="m0 67 18.8 3c18.9 3 56.5 9 94 9s74.9-6 112.4-13 75.1-15 112.6-15 74.9 8 112.4 16 75.1 16 112.6 20 74.9 4 112.4 1 75.1-9 112.6-13 74.9-6 93.5-7l18.7-1V0H0Z" fill="#0a369d"/><path d="m0 235 18.8-3c18.9-3 56.5-9 94-21s74.9-30 112.4-31 75.1 15 112.6 25 74.9 14 112.4 15 75.1-1 112.6 0 74.9 5 112.4-1 75.1-22 112.6-31 74.9-11 93.5-12l18.7-1V65l-18.7 1c-18.6 1-56 3-93.5 7s-75.1 10-112.6 13-74.9 3-112.4-1-75.1-12-112.6-20-74.9-16-112.4-16-75.1 8-112.6 15-74.9 13-112.4 13-75.1-6-94-9L0 65Z" fill="#0056b7"/><path d="m0 343 18.8-5c18.9-5 56.5-15 94-28s74.9-29 112.4-33 75.1 4 112.6 13 74.9 19 112.4 25 75.1 8 112.6 1 74.9-23 112.4-32 75.1-11 112.6-18 74.9-19 93.5-25l18.7-6v-62l-18.7 1c-18.6 1-56 3-93.5 12s-75.1 25-112.6 31-74.9 2-112.4 1-75.1 1-112.6 0-74.9-5-112.4-15-75.1-26-112.6-25-74.9 19-112.4 31-75.1 18-94 21L0 233Z" fill="#0074cd"/><path d="m0 439 18.8-5c18.9-5 56.5-15 94-23s74.9-14 112.4-21 75.1-15 112.6-9 74.9 26 112.4 35 75.1 7 112.6 5 74.9-4 112.4 0 75.1 14 112.6 19 74.9 5 93.5 5H900V233l-18.7 6c-18.6 6-56 18-93.5 25s-75.1 9-112.6 18-74.9 25-112.4 32-75.1 5-112.6-1-74.9-16-112.4-25-75.1-17-112.6-13-74.9 20-112.4 33-75.1 23-94 28L0 341Z" fill="#0092df"/><path d="m0 475 18.8-3c18.9-3 56.5-9 94-12s74.9-3 112.4-8 75.1-15 112.6-15 74.9 10 112.4 15 75.1 5 112.6 4 74.9-3 112.4 1 75.1 14 112.6 19 74.9 5 93.5 5H900v-38h-18.7c-18.6 0-56 0-93.5-5s-75.1-15-112.6-19-74.9-2-112.4 0-75.1 4-112.6-5-74.9-29-112.4-35-75.1 2-112.6 9-74.9 13-112.4 21-75.1 18-94 23L0 437Z" fill="#00b0ef"/><path d="m0 499 18.8 2c18.9 2 56.5 6 94 3s74.9-13 112.4-18 75.1-5 112.6 0 74.9 15 112.4 17 75.1-4 112.6-5 74.9 3 112.4 6 75.1 5 112.6 6 74.9 1 93.5 1H900v-32h-18.7c-18.6 0-56 0-93.5-5s-75.1-15-112.6-19-74.9-2-112.4-1-75.1 1-112.6-4-74.9-15-112.4-15-75.1 10-112.6 15-74.9 5-112.4 8-75.1 9-94 12L0 473Z" fill="#00ccf7"/><path d="M0 547h18.8c18.9 0 56.5 0 94-3s74.9-9 112.4-11 75.1 0 112.6 6 74.9 16 112.4 15 75.1-13 112.6-17 74.9 0 112.4 7 75.1 17 112.6 21 74.9 2 93.5 1l18.7-1v-56h-18.7c-18.6 0-56 0-93.5-1s-75.1-3-112.6-6-74.9-7-112.4-6-75.1 7-112.6 5-74.9-12-112.4-17-75.1-5-112.6 0-74.9 15-112.4 18-75.1-1-94-3L0 497Z" fill="#00e6f3"/><path d="M0 601h900v-38l-18.7 1c-18.6 1-56 3-93.5-1s-75.1-14-112.6-21-74.9-11-112.4-7-75.1 16-112.6 17-74.9-9-112.4-15-75.1-8-112.6-6-74.9 8-112.4 11-75.1 3-94 3H0Z" fill="#26ffe6"/></svg>