<svg xmlns="http://www.w3.org/2000/svg" viewBox="0 0 900 600"><path d="m0 121 18.8 9c18.9 9 56.5 27 94 23s74.9-30 112.4-33 75.1 17 112.6 34 74.9 31 112.4 37 75.1 4 112.6-12 74.9-46 112.4-56 75.1 0 112.6 7 74.9 11 93.5 13l18.7 2V0H0Z" fill="#0a369d"/><path d="m0 283 18.8-5c18.9-5 56.5-15 94-19s74.9-2 112.4 3 75.1 13 112.6 20 74.9 13 112.4 15 75.1 0 112.6-9 74.9-25 112.4-22 75.1 25 112.6 31 74.9-4 93.5-9l18.7-5V143l-18.7-2c-18.6-2-56-6-93.5-13s-75.1-17-112.6-7-74.9 40-112.4 56-75.1 18-112.6 12-74.9-20-112.4-37-75.1-37-112.6-34-74.9 29-112.4 33-75.1-14-94-23L0 119Z" fill="#0056b7"/><path d="m0 325 18.8-5c18.9-5 56.5-15 94-15s74.9 10 112.4 19 75.1 17 112.6 20 74.9 1 112.4-3 75.1-10 112.6-18 74.9-18 112.4-15 75.1 19 112.6 24 74.9-1 93.5-4l18.7-3v-44l-18.7 5c-18.6 5-56 15-93.5 9s-75.1-28-112.6-31-74.9 13-112.4 22-75.1 11-112.6 9-74.9-8-112.4-15-75.1-15-112.6-20-74.9-7-112.4-3-75.1 14-94 19L0 281Z" fill="#0074cd"/><path d="m0 367 18.8-5c18.9-5 56.5-15 94-15s74.9 10 112.4 18 75.1 14 112.6 16 74.9 0 112.4-2 75.1-4 112.6-10 74.9-16 112.4-13 75.1 19 112.6 21 74.9-10 93.5-16l18.7-6v-32l-18.7 3c-18.6 3-56 9-93.5 4s-75.1-21-112.6-24-74.9 7-112.4 15-75.1 14-112.6 18-74.9 6-112.4 3-75.1-11-112.6-20-74.9-19-112.4-19-75.1 10-94 15L0 323Z" fill="#0092df"/><path d="m0 421 18.8 2c18.9 2 56.5 6 94 8s74.9 2 112.4 8 75.1 18 112.6 20 74.9-6 112.4-8 75.1 2 112.6-1 74.9-13 112.4-15 75.1 4 112.6 2 74.9-12 93.5-17l18.7-5v-62l-18.7 6c-18.6 6-56 18-93.5 16s-75.1-18-112.6-21-74.9 7-112.4 13-75.1 8-112.6 10-74.9 4-112.4 2-75.1-8-112.6-16-74.9-18-112.4-18-75.1 10-94 15L0 365Z" fill="#00b0ef"/><path d="m0 505 18.8-2c18.9-2 56.5-6 94-3s74.9 13 112.4 16 75.1-1 112.6-4 74.9-5 112.4-7 75.1-4 112.6-4 74.9 2 112.4 6 75.1 10 112.6 8 74.9-12 93.5-17l18.7-5v-80l-18.7 5c-18.6 5-56 15-93.5 17s-75.1-4-112.6-2-74.9 12-112.4 15-75.1-1-112.6 1-74.9 10-112.4 8-75.1-14-112.6-20-74.9-6-112.4-8-75.1-6-94-8L0 419Z" fill="#00ccf7"/><path d="m0 559 18.8-1c18.9-1 56.5-3 94-2s74.9 5 112.4 4 75.1-7 112.6-6 74.9 9 112.4 11 75.1-2 112.6-4 74.9-2 112.4-4 75.1-6 112.6-6 74.9 4 93.5 6l18.7 2v-68l-18.7 5c-18.6 5-56 15-93.5 17s-75.1-4-112.6-8-74.9-6-112.4-6-75.1 2-112.6 4-74.9 4-112.4 7-75.1 7-112.6 4-74.9-13-112.4-16-75.1 1-94 3L0 503Z" fill="#00e6f3"/><path d="M0 601h900v-44l-18.7-2c-18.6-2-56-6-93.5-6s-75.1 4-112.6 6-74.9 2-112.4 4-75.1 6-112.6 4-74.9-10-112.4-11-75.1 5-112.6 6-74.9-3-112.4-4-75.1 1-94 2L0 557Z" fill="#26ffe6"/></svg>