<svg fill="none" xmlns="http://www.w3.org/2000/svg" viewBox="0 0 31 31"><path d="M29 4.638c0-.923 0-1.385-.185-1.738a1.666 1.666 0 0 0-.736-.72C27.718 2 27.244 2 26.299 2H4.7c-.945 0-1.417 0-1.778.18-.317.158-.575.41-.737.72C2 3.253 2 3.715 2 4.638v1.215c0 .404 0 .605.047.795.041.168.11.329.202.476.104.167.25.31.542.594l8.543 8.347c.292.285.437.427.542.593.092.147.162.309.203.477.046.188.046.387.046.782v7.84c0 1.414 0 2.12.305 2.546.266.372.676.62 1.135.686.526.076 1.173-.24 2.467-.872l1.35-.66c.542-.264.812-.397 1.01-.594a1.64 1.64 0 0 0 .39-.615c.093-.262.093-.558.093-1.15v-7.169c0-.403 0-.604.047-.794.041-.168.11-.33.202-.477.104-.165.248-.307.536-.588l.006-.005 8.543-8.347c.292-.285.437-.427.542-.594.092-.147.162-.308.203-.476C29 6.46 29 6.261 29 5.866V4.638Z" stroke="#fff" stroke-width="3" stroke-linecap="round" stroke-linejoin="round"/></svg>